Coordinates
version=1
nRows=7
nColumns=33
inDegrees=yes

Units are S.I. units (second, meters, Newtons, ...)
Angles are in degrees.

endheader
time	ground_thorax_rot_x	ground_thorax_rot_y	ground_thorax_rot_z	ground_thorax_tx	ground_thorax_ty	ground_thorax_tz	clav_prot_r	clav_elev_r	scapula_abduction_r	scapula_elevation_r	scapula_upward_rot_r	scapula_winging_r	shoulder_elv_r	plane_of_elev_r	axial_rot_r	elbow_flexion_r	pro_sup_r	wrist_flex_r	wrist_dev_r	clav_prot_l	clav_elev_l	scapula_abduction_l	scapula_elevation_l	scapula_upward_rot_l	scapula_winging_l	shoulder_elv_l	plane_of_elev_l	axial_rot_l	elbow_flexion_l	pro_sup_l	wrist_flex_l	wrist_dev_l
      6.83000000	    -38.74508021	     -2.77564873	     -0.89475975	     -6.79771022	    807.34274902	      3.36203913	      3.50680924	    -45.00000000	     45.00000000	    -45.00000000	     -4.31557380	  -2246.60052613	  -1737.35015939	     28.72163885	     74.60012739	   1089.20857499	     10.98218490	     16.96102413	     12.44909334	     14.78142201	     41.62123481	    -45.00000000	    -39.71928883	    -20.41261000	   1517.20982068	  -2981.49304202	    135.65076098	   -179.99999979	   1445.71283897	     17.43009654	     13.76338624	    -18.36686984
      6.84000000	    -38.61430822	     -3.37626839	     -0.56167175	     -6.07815898	    806.74921468	      3.57468233	      3.62488275	    -45.00000000	     45.00000000	    -45.00000000	     -4.96586436	  -2246.56609403	  -1737.24088650	     28.77161454	     74.69163312	   1089.19162754	     11.01985445	     16.96347973	     12.22074692	     14.31259167	     40.99154621	    -45.00000000	    -39.24093996	    -20.60136475	   1517.49649958	  -2981.46831400	    135.68842357	   -179.92604037	   1445.57693257	     17.61266407	     13.69452432	    -18.25973255
      6.85000000	    -38.72804599	     -3.29128087	     -0.90782762	     -5.65409324	    806.28053839	      3.76576224	      3.74918244	    -45.00000000	     45.00000000	    -45.00000000	     -4.75900275	  -2246.56719948	  -1737.50711991	     28.77281706	     74.50785916	   1089.03003466	     11.07639563	     16.88895745	     12.48450207	     14.46581655	     41.39599191	    -45.00000000	    -39.42871791	    -20.60085034	   1517.33930490	  -2981.36014038	    135.58906728	   -179.99999979	   1445.44152345	     17.87213644	     13.53063794	    -18.37607654
      6.86000000	    -38.68059466	     -3.47106718	     -1.05208841	     -5.53014589	    805.90483635	      3.93410892	      3.51907862	    -45.00000000	     45.00000000	    -45.00000000	     -4.93626925	  -2246.43152884	  -1737.34794764	     28.71653929	     74.46686622	   1089.08048090	     11.09017319	     16.93008102	     12.21559551	     14.38757172	     41.18144882	    -45.00000000	    -39.27637004	    -20.19488473	   1517.53254584	  -2981.58278734	    135.71745479	   -179.99999979	   1445.38549479	     18.14026682	     13.41472501	    -18.25895383
      6.87000000	    -38.71111716	     -3.49624972	     -1.26038844	     -5.70365871	    805.59594607	      4.07318994	      3.66393827	    -45.00000000	     45.00000000	    -45.00000000	     -4.73702086	  -2246.61306425	  -1737.48951405	     28.78803748	     74.33562400	   1088.99299744	     11.14374097	     16.89049174	     12.46249721	     14.28286489	     41.42334108	    -45.00000000	    -39.34996782	    -20.29755918	   1517.50984279	  -2981.44819207	    135.61693093	   -179.99999979	   1445.27470223	     18.45338703	     13.22943829	    -18.40653157
      6.88000000	    -38.68502243	     -3.66221882	     -1.29447001	     -6.17227518	    805.32247125	      4.17720877	      3.46102762	    -45.00000000	     45.00000000	    -45.00000000	     -5.00058064	  -2246.53906012	  -1737.34067205	     28.64711937	     74.41556738	   1088.94038666	     11.17193479	     16.90881470	     12.13271640	     14.36273709	     41.28250181	    -45.00000000	    -39.20925153	    -20.04037058	   1517.70827466	  -2981.57956615	    135.73309126	   -179.99999979	   1445.20453706	     18.74668841	     13.01849716	    -18.27354765
      6.89000000	    -38.70140417	     -3.63453609	     -1.49451203	     -6.93494742	    805.06316645	      4.23710917	      3.73122556	    -45.00000000	     45.00000000	    -45.00000000	     -4.72715264	  -2247.05472644	  -1737.64022467	     28.89767447	     74.28441423	   1088.81251525	     11.23169833	     16.84157877	     12.54984401	     14.18007805	     41.56722276	    -45.00000000	    -39.26719131	    -20.30905164	   1517.78903783	  -2981.32359394	    135.54096836	   -179.99999979	   1445.20691510	     19.03359086	     12.89360817	    -18.56688907
